<?xml version="1.0" encoding="UTF-8"?><svg id="a" xmlns="http://www.w3.org/2000/svg" viewBox="0 0 98.6 27.14"><g id="b"><g id="c"><path d="m70.1,26.94v-1.8c0-.6-.4-1.1-1-1.1h-.1c-.4,0-.8.2-1,.5-.2-.3-.6-.5-.9-.5s-.7.1-.8.4v-.4h-.6v2.9h.6v-1.6c-.1-.4.2-.7.6-.8h.1c.4,0,.6.3.6.8v1.6h.6v-1.6c0-.4.2-.7.6-.8h.1c.4,0,.6.3.6.8v1.6h.6Zm9.3-2.9h-1v-.9h-.6v.9h-.6v.6h.6v1.3c0,.7.3,1.1,1,1.1.3,0,.5-.1.8-.2l-.2-.5c-.2.1-.4.2-.6.2-.3,0-.4-.2-.4-.5v-1.3h1v-.7Zm5.3,0c-.3,0-.6.2-.8.4v-.3h-.6v2.9h.6v-1.6c0-.5.2-.7.6-.7.1,0,.3,0,.4.1l.2-.6c-.1-.2-.2-.2-.4-.2h0Zm-8,.3c-.4-.2-.8-.3-1.2-.3-.7,0-1.2.3-1.2.9,0,.5.3.8,1,.8h.3c.3,0,.5.1.5.3s-.2.3-.7.3c-.3,0-.7-.1-1-.3l-.3.5c.4.3.8.4,1.2.4.8,0,1.3-.4,1.3-.9s-.4-.8-1-.9h-.3c-.3,0-.5-.1-.5-.3s.2-.3.5-.3.6.1.9.2l.5-.4Zm16.7-.3c-.3,0-.6.2-.8.4v-.3h-.6v2.9h.6v-1.6c0-.5.2-.7.6-.7.1,0,.3,0,.4.1l.2-.6c-.1-.2-.3-.2-.4-.2h0Zm-8,1.5c0,.8.6,1.5,1.4,1.5h.1c.4,0,.7-.1,1-.3l-.3-.6c-.2.2-.5.3-.7.3-.5,0-.9-.5-.8-1,0-.4.4-.8.8-.8.3,0,.5.1.7.3l.3-.5c-.3-.2-.7-.4-1-.3-.8,0-1.5.6-1.5,1.4q0-.1,0,0h0Zm5.8,0v-1.4h-.6v.3c-.2-.3-.5-.4-.9-.4-.8,0-1.5.7-1.5,1.5s.7,1.5,1.5,1.5c.3,0,.7-.1.9-.4v.3h.6v-1.4Zm-2.3,0c0-.5.4-.8.9-.8s.8.4.8.9-.4.8-.9.8c-.4,0-.8-.4-.8-.9h0Zm-7.5-1.5c-.8,0-1.5.7-1.5,1.5s.7,1.5,1.5,1.5h0c.4,0,.9-.1,1.2-.4l-.3-.5c-.2.2-.5.3-.8.3-.4,0-.8-.3-.9-.7h2.1v-.2c0-.9-.5-1.5-1.3-1.5h0Zm0,.5c.4,0,.7.3.7.7h-1.5c0-.4.4-.7.8-.7h0Zm15.6,1v-2.6h-.6v1.5c-.2-.3-.5-.4-.9-.4-.8,0-1.5.7-1.5,1.5s.7,1.5,1.5,1.5c.3,0,.7-.1.9-.4v.3h.6v-1.4Zm1,1h0c.1,0,.2,0,.2.1,0,0,0,.1.1.1v.2s0,.1-.1.1c0,0-.1,0-.1.1h-.1c-.1,0-.2-.1-.3-.2v-.2s0-.1.1-.1c0,0,.1,0,.1-.1h.1Zm0,.5h0q.1,0,.2-.1c.1-.1.1-.2,0-.3h-.4c-.1.1-.1.2,0,.3q.1.1.2.1c-.1,0,0,0,0,0h0Zm0-.4s.1,0,0,0c.1,0,.1.1.1.1v.1h-.1l.1.1h-.1l-.1-.1h0v.1h-.1v-.3h.2Zm-.1.1h0l.1.1h0q0-.1-.1-.1h0Zm-3.2-1.2c0-.5.4-.8.9-.8s.8.4.8.9-.4.8-.9.8-.8-.4-.8-.9h0Zm-21,0v-1.4h-.6v.3c-.2-.3-.5-.4-.9-.4-.8,0-1.5.7-1.5,1.5s.7,1.5,1.5,1.5c.3,0,.7-.1.9-.4v.3h.6v-1.4Zm-2.4,0c0-.5.4-.8.9-.8s.8.4.8.9-.4.8-.9.8c-.4,0-.8-.4-.8-.9h0Z" style="fill:#231f20;"/><g id="d"><rect x="76.5" y="2.34" width="9.4" height="16.9" style="fill:#ff5f00;"/><path id="e" d="m77.1,10.74c0-3.3,1.5-6.4,4.1-8.5-4.6-3.6-11.4-2.8-15.1,1.9-3.7,4.7-2.9,11.4,1.8,15.1,3.9,3.1,9.4,3.1,13.3,0-2.6-2-4.1-5.2-4.1-8.5Z" style="fill:#eb001b;"/><path d="m98.6,10.74c0,5.9-4.8,10.8-10.8,10.8-2.4,0-4.8-.8-6.7-2.3,4.7-3.7,5.5-10.4,1.8-15.1-.5-.7-1.1-1.3-1.8-1.8,4.7-3.7,11.4-2.9,15.1,1.8,1.6,1.9,2.4,4.2,2.4,6.6h0Z" style="fill:#f79e1b;"/><path d="m97.6,17.44v-.3h.1v-.1h-.4v.1h.2l.1.3h0Zm.7,0v-.4h-.1l-.1.3-.1-.3h-.1v.4h.1v-.3l.1.3h.2v-.3.3h0Z" style="fill:#f79e1b;"/></g></g></g><path d="m18.99,5.55l-6.76,15.39h-4.27l-3.05-12.28c-.19-.76-.35-1.03-.94-1.35-.96-.52-2.56-1.01-3.97-1.31l.1-.45h6.88c.88,0,1.66.57,1.84,1.57l1.58,8.9,4.35-10.47h4.24Zm16.59,10.36c.07-4.06-5.64-4.28-5.58-6.1.02-.55.56-1.14,1.73-1.29.58-.07,2.18-.13,3.97.69l.76-3.26c-.97-.35-2.21-.68-3.77-.68-3.99,0-6.83,2.09-6.9,5.09-.06,2.22,1.96,3.45,3.48,4.19,1.56.75,2.08,1.24,2.07,1.91-.03,1.03-1.28,1.49-2.44,1.51-2.03.03-3.2-.54-4.14-.97l-.78,3.37c.94.43,2.67.8,4.48.82,4.25,0,7.05-2.06,7.11-5.26m10.48,5.02h3.74l-3.05-15.39h-3.45c-.78,0-1.44.44-1.74,1.13l-6.26,14.26h4.24l.88-2.3h5.18l.46,2.3Zm-4.43-5.45l2.21-5.78,1.14,5.78h-3.35ZM24.77,5.55l-3.56,15.39h-4.04l3.56-15.39h4.04Z" style="fill:#1434cb;"/></svg>